<svg xmlns="http://www.w3.org/2000/svg" xmlns:xlink="http://www.w3.org/1999/xlink" width="15.873" height="16.236" viewBox="0 0 15.873 16.236">
  <defs>
    <clipPath id="clip-path">
      <rect id="Rectangle_6569" data-name="Rectangle 6569" width="15.547" height="15.166" transform="translate(0 15.495) rotate(-85.332)" fill="#9c80ff"/>
    </clipPath>
  </defs>
  <g id="Group_7520" data-name="Group 7520" transform="matrix(0.999, -0.035, 0.035, 0.999, -0.541, 0.044)">
    <g id="Group_7519" data-name="Group 7519" transform="translate(0 0)" clip-path="url(#clip-path)">
      <path id="Path_9425" data-name="Path 9425" d="M4.267,8.788c-.394-.032-.8-.056-1.147-.1a3.378,3.378,0,0,1-1.754-.658,3.729,3.729,0,0,1-1.2-1.522c-.346-.675-.16-.957.59-.965,1.067,0,3.348.093,4.269.1L2.585.875A.185.185,0,0,1,2.591.708.172.172,0,0,1,2.648.647.161.161,0,0,1,2.725.622,3.231,3.231,0,0,1,4.28.817a3.4,3.4,0,0,1,1.309.912A26.354,26.354,0,0,1,7.558,4.775c.867-.955,2.52-3.215,3.48-4.389.427-.528.857-.505,1.163.014a7.569,7.569,0,0,1,.848,1.958,1.641,1.641,0,0,1-.356,1.114c-.569.813-1.213,1.574-1.941,2.5.559.117.851.159,1.318.274a4.2,4.2,0,0,1,2.709,1.8,1.236,1.236,0,0,1,.182.472,1.3,1.3,0,0,1-.019.513c-.073.183-.556.283-.851.281-1.067-.006-3.5-.2-4.2-.271.269.534.537,1.088.742,1.5.468.915.939,1.835,1.411,2.751.29.558.11.877-.479,1.009a2.2,2.2,0,0,1-1.5-.153,2.4,2.4,0,0,1-1.1-1.1c-.455-.833-1.3-2.516-1.54-2.9-.871,1.108-1.877,2.41-2.722,3.524s-1.38,1.052-2-.217a2.408,2.408,0,0,1,.244-3c.425-.509,1.318-1.667,1.318-1.667" transform="translate(0.661 1.389)" fill="#9c80ff"/>
    </g>
  </g>
</svg>
