<svg id="Group_7758" data-name="Group 7758" xmlns="http://www.w3.org/2000/svg" xmlns:xlink="http://www.w3.org/1999/xlink" width="16.303" height="12.05" viewBox="0 0 16.303 12.05">
  <defs>
    <clipPath id="clip-path">
      <rect id="Rectangle_6776" data-name="Rectangle 6776" width="16.303" height="12.05" fill="#fff"/>
    </clipPath>
  </defs>
  <g id="Group_7757" data-name="Group 7757" transform="translate(0 0)" clip-path="url(#clip-path)">
    <path id="Path_9619" data-name="Path 9619" d="M5.317,11.741.2,6.621a.669.669,0,0,1,0-.946h0l1.3-1.3a.672.672,0,0,1,.949,0L6.065,7.985,13.854.2A.67.67,0,0,1,14.8.2h0l1.3,1.3a.67.67,0,0,1,0,.947h0L6.814,11.741a1.06,1.06,0,0,1-1.5,0" transform="translate(0 0)" fill="#fff"/>
  </g>
</svg>
