<svg id="Group_6803" data-name="Group 6803" xmlns="http://www.w3.org/2000/svg" width="17.41" height="13.982" viewBox="0 0 17.41 13.982">
  <path id="Path_1130" data-name="Path 1130" d="M753.555,81.52a7.211,7.211,0,0,1-2.052.556,3.549,3.549,0,0,0,1.571-1.953,7.21,7.21,0,0,1-2.268.858,3.587,3.587,0,0,0-2.608-1.115,3.552,3.552,0,0,0-3.572,3.53,3.405,3.405,0,0,0,.094.8,10.182,10.182,0,0,1-7.363-3.687,3.5,3.5,0,0,0,1.106,4.712,3.584,3.584,0,0,1-1.618-.442v.045a3.542,3.542,0,0,0,2.865,3.461,3.6,3.6,0,0,1-1.613.06,3.572,3.572,0,0,0,3.337,2.451A7.218,7.218,0,0,1,737,92.311a7.1,7.1,0,0,1-.852-.05,10.185,10.185,0,0,0,5.475,1.587A10.03,10.03,0,0,0,751.782,83.8c0-.153,0-.305-.009-.457A7.2,7.2,0,0,0,753.555,81.52Z" transform="translate(-736.145 -79.865)"/>
</svg>
