<svg id="Group_7762" data-name="Group 7762" xmlns="http://www.w3.org/2000/svg" xmlns:xlink="http://www.w3.org/1999/xlink" width="17.657" height="17.644" viewBox="0 0 17.657 17.644">
  <defs>
    <clipPath id="clip-path">
      <rect id="Rectangle_23" data-name="Rectangle 23" width="17.657" height="17.644"/>
    </clipPath>
  </defs>
  <g id="Group_33" data-name="Group 33" transform="translate(0)" clip-path="url(#clip-path)">
    <path id="Path_8878" data-name="Path 8878" d="M0,11.191V6.386a.954.954,0,0,0,.013-.1c.016-.4.028-.81.047-1.215a6.829,6.829,0,0,1,.255-1.6,4.479,4.479,0,0,1,2-2.66A5.265,5.265,0,0,1,4.806.076C5.585.03,6.367,0,7.147,0c1.644,0,3.288.015,4.931.034A7.41,7.41,0,0,1,14.44.393a4.515,4.515,0,0,1,2.077,1.465,4.829,4.829,0,0,1,.96,2.2A11.363,11.363,0,0,1,17.629,6c.025,2.176.063,4.353-.035,6.528a7.025,7.025,0,0,1-.258,1.631,4.54,4.54,0,0,1-1.567,2.359,4.867,4.867,0,0,1-2.576,1c-.613.065-1.232.073-1.848.108-.055,0-.109.011-.164.016H6.649a.689.689,0,0,0-.1-.016c-.29-.008-.581-.013-.871-.021a9.088,9.088,0,0,1-2.047-.237,4.543,4.543,0,0,1-2.621-1.755A5.051,5.051,0,0,1,.1,13.037C.051,12.469.042,11.9.014,11.326c0-.045-.009-.09-.014-.135m8.826,4.861c0,.007,0,.013,0,.02,1.111-.019,2.222-.035,3.333-.058a6.094,6.094,0,0,0,1.513-.193,3.054,3.054,0,0,0,1.4-.809,3.263,3.263,0,0,0,.857-1.811,11.967,11.967,0,0,0,.115-1.828c.014-1.029.015-2.059.012-3.089,0-.9-.015-1.791-.031-2.686a6.878,6.878,0,0,0-.175-1.525,2.95,2.95,0,0,0-1.507-1.991,3.821,3.821,0,0,0-1.608-.42c-.662-.038-1.326-.073-1.989-.074-1.663,0-3.327.015-4.99.03a7.632,7.632,0,0,0-1.6.157A3,3,0,0,0,2.231,3.051a3.55,3.55,0,0,0-.559,1.744c-.047.622-.072,1.247-.08,1.87-.013,1.1-.01,2.2,0,3.295,0,.765.02,1.529.04,2.294a6.175,6.175,0,0,0,.156,1.282,3.013,3.013,0,0,0,1.276,1.883,3.543,3.543,0,0,0,1.726.552c.619.047,1.24.068,1.86.079.725.013,1.451,0,2.177,0" transform="translate(0 0)"/>
    <path id="Path_8879" data-name="Path 8879" d="M227.685,222.887a4.532,4.532,0,1,1-4.667-4.464,4.533,4.533,0,0,1,4.667,4.464m-4.524-2.874a2.94,2.94,0,1,0,2.928,2.968,2.939,2.939,0,0,0-2.928-2.968" transform="translate(-214.328 -214.133)"/>
    <path id="Path_8880" data-name="Path 8880" d="M635.368,156.525a1.059,1.059,0,1,1,1.052,1.066,1.06,1.06,0,0,1-1.052-1.066" transform="translate(-622.893 -152.421)"/>
  </g>
</svg>
