<svg xmlns="http://www.w3.org/2000/svg" width="14.653" height="13.824" viewBox="0 0 14.653 13.824">
  <g id="Group_6807" data-name="Group 6807" transform="translate(-366.202 -7887.873)">
    <path id="LinkedIn" d="M18.653,27.12v4.87a.392.392,0,0,1-.392.392H15.875a.392.392,0,0,1-.392-.392V27.472A1.669,1.669,0,0,0,13.8,25.8h0a1.669,1.669,0,0,0-1.654,1.669V31.99a.392.392,0,0,1-.392.392H9.368a.392.392,0,0,1-.392-.393c.007-1.531.03-7.086.007-8.746a.392.392,0,0,1,.392-.4h2.378a.392.392,0,0,1,.392.392v.612A3.944,3.944,0,0,1,15,22.828C17.089,22.828,18.653,24.191,18.653,27.12ZM5.794,18.558a1.653,1.653,0,1,0-.042,3.3h.021a1.653,1.653,0,1,0,.021-3.3ZM4.58,32.382H6.967a.392.392,0,0,0,.392-.392V23.237a.392.392,0,0,0-.392-.392H4.58a.392.392,0,0,0-.392.392V31.99A.392.392,0,0,0,4.58,32.382Z" transform="translate(362.202 7869.315)"/>
  </g>
</svg>
