<svg id="Upword_logo" data-name="Upword logo" xmlns="http://www.w3.org/2000/svg" width="250" height="65.843" viewBox="0 0 250 65.843">
  <path id="Path_1" data-name="Path 1" d="M35.138,41.277c0,.557-.455.836-1.207.836h-.65c-3.064,0-8.262.186-9.887-5.246a9.942,9.942,0,0,1-9.7,6.035C5.8,42.9,2.414,38.538,2.414,29.86v-13c0-2.134-.093-3.157-1.346-3.573C.373,13.149,0,12.87,0,12.313c0-.511.37-.836,1.114-.882a68.026,68.026,0,0,0,10.815-.836.841.841,0,0,1,1.161.882V29.858c0,4.271.927,8.076,4.921,8.076,4.132,0,4.828-4.641,4.828-8.68V16.861c0-2.134-.186-3.157-1.439-3.573-.6-.186-1.021-.455-1.021-1.021,0-.511.325-.836,1.068-.882a68.49,68.49,0,0,0,10.86-.836.882.882,0,0,1,1.161.927V35.752c0,1.764-.045,4.091.882,4.687C34.72,40.721,35.138,40.859,35.138,41.277Z" transform="translate(0 13.369)" fill="#202020"/>
  <path id="Path_2" data-name="Path 2" d="M52.114,28.523C51.744,39.151,44.457,44.49,35.5,43.1a8.865,8.865,0,0,1-6.174-3.714v8.41c0,2.273.6,3.3,2.273,3.621.65.093,1.069.325,1.069.836,0,.557-.325.789-1.114.743-1.3-.045-3.714-.186-7.194-.186-3.434,0-5.8.093-7.01.186-.789.045-1.114-.186-1.114-.743,0-.511.325-.743,1.02-.882,1.3-.37,1.439-1.484,1.439-3.573V18.358c0-2.134-.186-3.157-1.439-3.573-.6-.186-1.02-.455-1.02-1.021a.827.827,0,0,1,.882-.882,62.87,62.87,0,0,0,10.4-1.95c.789-.227,1.207-.045,1.3.65l.28,3.714a10.3,10.3,0,0,1,9.424-5.2C47.521,10.141,52.533,17.663,52.114,28.523ZM41.2,26.25c-.139-7.751-3.064-11.976-6.637-11.7-3.714.227-5.755,4.773-5.385,14.436.28,7.612,3.064,11.185,6.73,10.953,3.762-.28,5.48-6.173,5.294-13.7Z" transform="translate(20.662 12.844)" fill="#202020"/>
  <path id="Path_3" data-name="Path 3" d="M82.829,19.682l-8.865,22.5a1.241,1.241,0,0,1-1.162.836H66.438a1.181,1.181,0,0,1-1.161-.836L59.429,26.171,53.023,42.232a1.2,1.2,0,0,1-1.161.836l-1.439-.045v.045H45.6a1.181,1.181,0,0,1-1.161-.836L34.974,16.525c-.882-2.414-1.346-3.109-2.691-3.621-.65-.227-1.021-.455-1.021-.927s.325-.743,1.114-.65c1.346.045,3.573.186,7.194.186a64.959,64.959,0,0,0,6.5-.186c.743-.045,1.114.186,1.114.65s-.37.743-.927,1.021c-.789.511-.511,1.487.045,3.573l5.937,20.286,5.43-15.27-1.857-5.06c-.882-2.414-1.393-3.109-2.728-3.573-.6-.28-1.021-.511-1.021-1.021,0-.455.325-.743,1.114-.65,1.346.045,3.621.227,7.242.227a59.776,59.776,0,0,0,6.453-.227c.743-.045,1.161.186,1.161.65,0,.557-.37.743-.927,1.068-.836.455-.557,1.487.045,3.528l5.894,20.284,5.385-15.086c1.346-3.714-2.414-4.455-2.971-7.705A3.637,3.637,0,0,1,79.44,9.835C84.406,9.981,84.779,14.716,82.829,19.682Z" transform="translate(39.796 12.493)" fill="#202020"/>
  <path id="Path_4" data-name="Path 4" d="M87.8,26.653A16.479,16.479,0,1,1,82.972,15,16.48,16.48,0,0,1,87.8,26.653Zm-22,1.114c1.439,7.705,4.455,14.065,8.637,13.322,3.991-.927,3.9-7.937,2.5-15.549-1.484-7.612-4.5-14.065-8.637-13.322-4.078.927-3.937,7.994-2.5,15.549Z" transform="translate(69.811 12.951)" fill="#202020"/>
  <path id="Path_5" data-name="Path 5" d="M92.164,21.153c-4.966-.093-2.414-5.8-6.219-5.8-2.414,0-2.553,3.991-2.553,6.405V37.305c0,2.321.6,3.341,2.273,3.621.743.186,1.114.37,1.114.882s-.37.789-1.161.743c-1.3-.139-3.714-.227-7.194-.227-3.434,0-5.755.093-7.01.227-.743.045-1.114-.227-1.114-.743s.371-.743,1.069-.927c1.207-.325,1.393-1.439,1.393-3.573V19.762c0-2.134-.186-3.248-1.393-3.621-.65-.186-1.069-.455-1.069-.927,0-.557.325-.836.927-.927a40.95,40.95,0,0,0,10.258-3.434c.743-.37,1.159-.045,1.3.743l.455,4.223a7.433,7.433,0,0,1,7.148-5.662C99.635,10.061,98.894,21.34,92.164,21.153Z" transform="translate(89.49 12.929)" fill="#202020"/>
  <path id="Path_6" data-name="Path 6" d="M118.289,46.182c0,.511-.37.743-1.159.743-2.5,0-8.449.28-10.815.6a.923.923,0,0,1-1.161-1.021V43.341a10.044,10.044,0,0,1-9.144,4.773c-8.958,0-14.017-7.519-13.638-18.382.37-10.628,7.705-15.968,16.663-14.574a8.864,8.864,0,0,1,6.173,3.714V15.454c0-2.046-.093-3.248-1.346-3.573-.6-.227-1.068-.511-1.068-1.021,0-.557.325-.836,1.023-1.021a39.963,39.963,0,0,0,10.86-3.389c.652-.325,1.207-.045,1.207.743v34.44c0,2.134.186,3.248,1.393,3.573C117.918,45.486,118.289,45.625,118.289,46.182Zm-13-16.85c-.28-7.612-3.062-11.185-6.73-10.953-3.714.28-5.385,6.173-5.291,13.692.186,7.751,3.064,11.976,6.637,11.7,3.714-.232,5.757-4.828,5.385-14.436Z" transform="translate(104.831 8.042)" fill="#202020"/>
  <path id="Path_7" data-name="Path 7" d="M106.559,14.345c-.618,0-1.259.014-1.8-.014a5.553,5.553,0,0,1-4.866-2.955c-.625-.991-.37-1.443.8-1.548,1.664-.139,5.228-.275,6.669-.384l-4.421-6.978a.265.265,0,0,1-.039-.124.272.272,0,0,1,.023-.128.257.257,0,0,1,.082-.1.263.263,0,0,1,.118-.052A5.227,5.227,0,0,1,107.727,3.4a40.385,40.385,0,0,1,3.457,4.414c1.232-1.568,3.521-5.228,4.866-7.144.6-.852,1.273-.88,1.818-.123a11.56,11.56,0,0,1,1.573,2.887,2.476,2.476,0,0,1-.411,1.746c-.784,1.314-1.691,2.557-2.709,4.064.886.109,1.348.139,2.091.255a6.59,6.59,0,0,1,4.448,2.421,1.934,1.934,0,0,1,.345.7,1.891,1.891,0,0,1,.034.782c-.091.289-.832.5-1.293.536-1.664.123-5.487.13-6.592.109.493.784.975,1.591,1.346,2.193.846,1.341,1.7,2.689,2.553,4.028.523.818.282,1.327-.618,1.591a3.728,3.728,0,0,1-2.384-.055,4,4,0,0,1-1.83-1.541c-.818-1.216-2.346-3.684-2.771-4.235-1.216,1.8-2.618,3.919-3.794,5.726s-2.014,1.78-3.134-.089a3.635,3.635,0,0,1,0-4.612C105.329,16.229,106.559,14.345,106.559,14.345Z" transform="translate(126.734 0)" fill="#b8a4fd"/>
</svg>
